<svg width="44" height="44" viewBox="0 0 74 74" fill="none" xmlns="http://www.w3.org/2000/svg">
<g filter="url(#filter0_d)">
<path d="M37 7C20.434 7 7 20.434 7 37C7 53.566 20.434 67 37 67C53.566 67 67 53.566 67 37C67 20.434 53.566 7 37 7ZM54.1227 44.1022C54.0393 45.936 53.7477 47.188 53.322 48.2839C52.4271 50.5979 50.5979 52.4271 48.2839 53.322C47.1884 53.7477 45.936 54.0389 44.1027 54.1227C42.2657 54.2064 41.6788 54.2266 37.0005 54.2266C32.3217 54.2266 31.7353 54.2064 29.8978 54.1227C28.0645 54.0389 26.812 53.7477 25.7166 53.322C24.5667 52.8894 23.5257 52.2115 22.6651 51.3349C21.789 50.4747 21.111 49.4333 20.6784 48.2839C20.2527 47.1884 19.9611 45.936 19.8778 44.1027C19.7931 42.2652 19.7734 41.6783 19.7734 37C19.7734 32.3217 19.7931 31.7348 19.8773 29.8978C19.9607 28.064 20.2518 26.812 20.6775 25.7161C21.1101 24.5667 21.7885 23.5253 22.6651 22.6651C23.5253 21.7885 24.5667 21.1106 25.7161 20.678C26.812 20.2523 28.064 19.9611 29.8978 19.8773C31.7348 19.7936 32.3217 19.7734 37 19.7734C41.6783 19.7734 42.2652 19.7936 44.1022 19.8778C45.936 19.9611 47.188 20.2523 48.2839 20.6775C49.4333 21.1101 50.4747 21.7885 51.3353 22.6651C52.2115 23.5257 52.8899 24.5667 53.322 25.7161C53.7482 26.812 54.0393 28.064 54.1231 29.8978C54.2069 31.7348 54.2266 32.3217 54.2266 37C54.2266 41.6783 54.2069 42.2652 54.1227 44.1022Z" fill="#02477D"/>
</g>
<g filter="url(#filter1_d)">
<path d="M50.3125 26.9284C50.0389 26.1869 49.6023 25.5158 49.0351 24.9649C48.4842 24.3977 47.8135 23.9611 47.0716 23.6875C46.4698 23.4538 45.5659 23.1756 43.901 23.0998C42.0999 23.0177 41.5599 23 37.0002 23C32.4401 23 31.9001 23.0172 30.0995 23.0994C28.4345 23.1756 27.5302 23.4538 26.9289 23.6875C26.1869 23.9611 25.5158 24.3977 24.9654 24.9649C24.3981 25.5158 23.9616 26.1865 23.6875 26.9284C23.4538 27.5302 23.1756 28.4345 23.0998 30.0995C23.0177 31.9001 23 32.4401 23 37.0002C23 41.5599 23.0177 42.0999 23.0998 43.901C23.1756 45.5659 23.4538 46.4698 23.6875 47.0716C23.9616 47.8135 24.3977 48.4842 24.9649 49.0351C25.5158 49.6023 26.1865 50.0389 26.9284 50.3125C27.5302 50.5467 28.4345 50.8248 30.0995 50.9006C31.9001 50.9828 32.4397 51 36.9998 51C41.5603 51 42.1003 50.9828 43.9005 50.9006C45.5655 50.8248 46.4698 50.5467 47.0716 50.3125C48.5609 49.738 49.738 48.5609 50.3125 47.0716C50.5462 46.4698 50.8244 45.5659 50.9006 43.901C50.9828 42.0999 51 41.5599 51 37.0002C51 32.4401 50.9828 31.9001 50.9006 30.0995C50.8248 28.4345 50.5467 27.5302 50.3125 26.9284ZM37.0002 45.7687C32.157 45.7687 28.2308 41.843 28.2308 36.9998C28.2308 32.1565 32.157 28.2308 37.0002 28.2308C41.843 28.2308 45.7692 32.1565 45.7692 36.9998C45.7692 41.843 41.843 45.7687 37.0002 45.7687ZM46.1159 29.9334C44.9841 29.9334 44.0666 29.0159 44.0666 27.8841C44.0666 26.7524 44.9841 25.8348 46.1159 25.8348C47.2476 25.8348 48.1652 26.7524 48.1652 27.8841C48.1647 29.0159 47.2476 29.9334 46.1159 29.9334Z" fill="#02477D"/>
</g>
<path d="M43 37C43 40.3138 40.3138 43 37 43C33.6862 43 31 40.3138 31 37C31 33.6862 33.6862 31 37 31C40.3138 31 43 33.6862 43 37Z" fill="#9CB7CC"/>
<defs>
<filter id="filter0_d" x="0" y="0" width="74" height="74" filterUnits="userSpaceOnUse" color-interpolation-filters="sRGB">
<feFlood flood-opacity="0" result="BackgroundImageFix"/>
<feColorMatrix in="SourceAlpha" type="matrix" values="0 0 0 0 0 0 0 0 0 0 0 0 0 0 0 0 0 0 127 0"/>
<feOffset/>
<feGaussianBlur stdDeviation="3.5"/>
<feColorMatrix type="matrix" values="0 0 0 0 1 0 0 0 0 1 0 0 0 0 1 0 0 0 1 0"/>
<feBlend mode="normal" in2="BackgroundImageFix" result="effect1_dropShadow"/>
<feBlend mode="normal" in="SourceGraphic" in2="effect1_dropShadow" result="shape"/>
</filter>
<filter id="filter1_d" x="19" y="19" width="36" height="36" filterUnits="userSpaceOnUse" color-interpolation-filters="sRGB">
<feFlood flood-opacity="0" result="BackgroundImageFix"/>
<feColorMatrix in="SourceAlpha" type="matrix" values="0 0 0 0 0 0 0 0 0 0 0 0 0 0 0 0 0 0 127 0"/>
<feOffset/>
<feGaussianBlur stdDeviation="2"/>
<feColorMatrix type="matrix" values="0 0 0 0 1 0 0 0 0 1 0 0 0 0 1 0 0 0 0.25 0"/>
<feBlend mode="normal" in2="BackgroundImageFix" result="effect1_dropShadow"/>
<feBlend mode="normal" in="SourceGraphic" in2="effect1_dropShadow" result="shape"/>
</filter>
</defs>
</svg>
