<svg width="45" height="47" viewBox="0 0 75 77" fill="none" xmlns="http://www.w3.org/2000/svg">
<g filter="url(#filter0_dd)">
<path d="M37.5 7C20.6551 7 7 20.879 7 38C7 55.121 20.6551 69 37.5 69C54.3449 69 68 55.121 68 38C68 20.879 54.3449 7 37.5 7ZM44.7247 28.4223H40.1402C39.5969 28.4223 38.9932 29.1489 38.9932 30.1144V33.4792H44.7279L43.8605 38.2777H38.9932V52.683H33.5827V38.2777H28.6741V33.4792H33.5827V30.6569C33.5827 26.6075 36.3467 23.317 40.1402 23.317H44.7247V28.4223Z" fill="#02477D"/>
</g>
<defs>
<filter id="filter0_dd" x="0" y="0" width="75" height="77" filterUnits="userSpaceOnUse" color-interpolation-filters="sRGB">
<feFlood flood-opacity="0" result="BackgroundImageFix"/>
<feColorMatrix in="SourceAlpha" type="matrix" values="0 0 0 0 0 0 0 0 0 0 0 0 0 0 0 0 0 0 127 0"/>
<feOffset dy="4"/>
<feGaussianBlur stdDeviation="2"/>
<feColorMatrix type="matrix" values="0 0 0 0 0 0 0 0 0 0 0 0 0 0 0 0 0 0 0.25 0"/>
<feBlend mode="normal" in2="BackgroundImageFix" result="effect1_dropShadow"/>
<feColorMatrix in="SourceAlpha" type="matrix" values="0 0 0 0 0 0 0 0 0 0 0 0 0 0 0 0 0 0 127 0"/>
<feOffset/>
<feGaussianBlur stdDeviation="3.5"/>
<feColorMatrix type="matrix" values="0 0 0 0 1 0 0 0 0 1 0 0 0 0 1 0 0 0 1 0"/>
<feBlend mode="normal" in2="effect1_dropShadow" result="effect2_dropShadow"/>
<feBlend mode="normal" in="SourceGraphic" in2="effect2_dropShadow" result="shape"/>
</filter>
</defs>
</svg>
