<svg width="44" height="44" viewBox="0 0 74 74" fill="none" xmlns="http://www.w3.org/2000/svg">
<g filter="url(#filter0_d)">
<path d="M37 7C20.4312 7 7 20.4312 7 37C7 53.5687 20.4312 67 37 67C53.5687 67 67 53.5687 67 37C67 20.4312 53.5687 7 37 7ZM49.2031 31.575C49.2156 31.8312 49.2187 32.0875 49.2187 32.3375C49.2187 40.15 43.2781 49.1531 32.4094 49.1531C29.0719 49.1531 25.9656 48.1781 23.3531 46.4969C23.8125 46.5531 24.2844 46.575 24.7625 46.575C27.5312 46.575 30.0781 45.6344 32.1 44.0469C29.5156 43.9969 27.3344 42.2906 26.5812 39.9469C26.9406 40.0125 27.3094 40.05 27.6906 40.05C28.2281 40.05 28.7531 39.9781 29.2469 39.8438C26.5437 39.3 24.5062 36.9125 24.5062 34.05V33.9781C25.3031 34.4187 26.2156 34.6875 27.1844 34.7188C25.5969 33.6562 24.5562 31.85 24.5562 29.7969C24.5562 28.7156 24.8469 27.6969 25.3562 26.825C28.2719 30.4 32.6219 32.75 37.5344 33.0031C37.4312 32.5687 37.3812 32.1187 37.3812 31.6531C37.3812 28.3937 40.025 25.7437 43.2906 25.7437C44.9875 25.7437 46.525 26.4625 47.6031 27.6125C48.95 27.3437 50.2125 26.8562 51.3531 26.1781C50.9125 27.5562 49.9781 28.7156 48.7562 29.45C49.9531 29.3031 51.0906 28.9875 52.15 28.5156C51.3594 29.7 50.3562 30.7437 49.2031 31.575Z" fill="#02477D"/>
</g>
<defs>
<filter id="filter0_d" x="0" y="0" width="74" height="74" filterUnits="userSpaceOnUse" color-interpolation-filters="sRGB">
<feFlood flood-opacity="0" result="BackgroundImageFix"/>
<feColorMatrix in="SourceAlpha" type="matrix" values="0 0 0 0 0 0 0 0 0 0 0 0 0 0 0 0 0 0 127 0"/>
<feOffset/>
<feGaussianBlur stdDeviation="3.5"/>
<feColorMatrix type="matrix" values="0 0 0 0 1 0 0 0 0 1 0 0 0 0 1 0 0 0 1 0"/>
<feBlend mode="normal" in2="BackgroundImageFix" result="effect1_dropShadow"/>
<feBlend mode="normal" in="SourceGraphic" in2="effect1_dropShadow" result="shape"/>
</filter>
</defs>
</svg>
