<svg class="pulse" width="135" height="75" viewBox="0 0 155 105" fill="none" xmlns="http://www.w3.org/2000/svg">
<g filter="url(#filter0_i)">
<path d="M151.8 73.2C151.8 94.2667 139.933 104.8 116.2 104.8C92.4667 104.8 80.6 92.8 80.6 68.8C80.6 44.5333 97.4 21.8667 131 0.799999L154.6 9.59998L129.8 42L130.6 44C144.733 46.9333 151.8 56.6667 151.8 73.2ZM71.8 73.2C71.8 94.2667 59.9333 104.8 36.2 104.8C12.4667 104.8 0.6 92.8 0.6 68.8C0.6 44.5333 17.4 21.8667 51 0.799999L74.6 9.59998L49.8 42L50.6 44C64.7333 46.9333 71.8 56.6667 71.8 73.2Z" fill="white"/>
</g>
<defs>
<filter id="filter0_i" x="0.600098" y="0.800049" width="154" height="104" filterUnits="userSpaceOnUse" color-interpolation-filters="sRGB">
<feFlood flood-opacity="0" result="BackgroundImageFix"/>
<feBlend mode="normal" in="SourceGraphic" in2="BackgroundImageFix" result="shape"/>
<feColorMatrix in="SourceAlpha" type="matrix" values="0 0 0 0 0 0 0 0 0 0 0 0 0 0 0 0 0 0 127 0" result="hardAlpha"/>
<feOffset/>
<feGaussianBlur stdDeviation="5.5"/>
<feComposite in2="hardAlpha" operator="arithmetic" k2="-1" k3="1"/>
<feColorMatrix type="matrix" values="0 0 0 0 0 0 0 0 0 0 0 0 0 0 0 0 0 0 0.3 0"/>
<feBlend mode="normal" in2="shape" result="effect1_innerShadow"/>
</filter>
</defs>
</svg>
