<svg width="55" height="56" viewBox="0 0 55 56" fill="none" xmlns="http://www.w3.org/2000/svg">
<g filter="url(#filter0_dd)">
<path d="M32.121 27.1695C31.6299 26.8409 31.0234 26.5571 30.3252 26.3266C29.6354 26.0983 28.856 25.8892 28.004 25.7014C27.3334 25.5435 26.8444 25.4176 26.554 25.3344C26.27 25.2554 25.986 25.1423 25.7084 24.9972C25.4436 24.8607 25.2322 24.6964 25.0827 24.5086C24.9439 24.3336 24.8734 24.1245 24.8734 23.8791C24.8734 23.4779 25.087 23.1407 25.5247 22.8463C25.9774 22.5411 26.5903 22.3875 27.342 22.3875C28.1534 22.3875 28.7428 22.5241 29.0952 22.7993C29.4582 23.0831 29.7742 23.4864 30.0347 23.9986C30.2611 24.3997 30.464 24.6772 30.6626 24.8521C30.874 25.0442 31.1772 25.1445 31.5658 25.1445C31.9951 25.1445 32.3559 24.9908 32.6442 24.6814C32.9304 24.3763 33.0756 24.0263 33.0756 23.6401C33.0756 23.2389 32.9624 22.8228 32.7467 22.411C32.531 21.9991 32.1872 21.6022 31.7281 21.2309C31.269 20.8596 30.6882 20.5651 29.9963 20.3432C29.3087 20.1213 28.4823 20.0103 27.547 20.0103C26.3725 20.0103 25.3368 20.1768 24.4656 20.5097C23.5836 20.8468 22.8982 21.3376 22.4284 21.9671C21.9543 22.6009 21.7152 23.3349 21.7152 24.1501C21.7152 25.0036 21.9436 25.7292 22.3942 26.3096C22.8362 26.8815 23.4448 27.3381 24.1965 27.6689C24.9354 27.989 25.8579 28.2728 26.9491 28.5139C27.7477 28.6846 28.3969 28.851 28.8731 29.0047C29.3301 29.1498 29.708 29.3632 29.9942 29.6384C30.2654 29.9009 30.3978 30.2338 30.3978 30.6648C30.3978 31.2026 30.1436 31.64 29.6226 32.0113C29.0866 32.3869 28.3755 32.5747 27.5085 32.5747C26.8765 32.5747 26.3661 32.4829 25.9839 32.2951C25.6059 32.1116 25.3112 31.879 25.1041 31.5995C24.8884 31.3071 24.6877 30.9359 24.5019 30.4984C24.3353 30.0951 24.126 29.7857 23.8847 29.5723C23.6349 29.3504 23.321 29.2437 22.9622 29.2437C22.5202 29.2437 22.1529 29.3845 21.8646 29.6598C21.5742 29.9436 21.4269 30.285 21.4269 30.6819C21.4269 31.3114 21.6532 31.9708 22.0995 32.628C22.5416 33.2874 23.1224 33.8166 23.8292 34.2071C24.8158 34.7448 26.0799 35.0159 27.5876 35.0159C28.8432 35.0159 29.9451 34.8153 30.8675 34.4248C31.7965 34.0279 32.514 33.4666 32.9987 32.7625C33.4856 32.054 33.7333 31.241 33.7333 30.3533C33.7333 29.6107 33.5902 28.9705 33.3062 28.452C33.0222 27.9335 32.6229 27.5067 32.121 27.1695ZM27.5 7C16.178 7 7 16.1715 7 27.4854C7 38.7992 16.178 47.9707 27.5 47.9707C38.822 47.9707 48 38.7992 48 27.4854C48 16.1715 38.822 7 27.5 7ZM32.4136 38.955C31.3736 38.955 30.3935 38.6883 29.5351 38.2124C28.9136 38.3341 28.2709 38.3959 27.6132 38.3959C21.8198 38.3959 17.1197 33.5605 17.1197 27.6048C17.1197 26.858 17.1945 26.1325 17.3333 25.4325C16.8016 24.5064 16.4962 23.4267 16.4962 22.2723C16.4962 18.8175 19.221 16.0114 22.5843 16.0114C23.7737 16.0114 24.882 16.3656 25.8216 16.9738C26.4024 16.8692 27.0046 16.8159 27.6132 16.8159C33.4108 16.8159 38.1087 21.647 38.1087 27.607C38.1087 28.3987 38.0255 29.1733 37.8674 29.9201C38.271 30.7587 38.4995 31.6998 38.4995 32.7006C38.4974 36.1532 35.7747 38.955 32.4136 38.955Z" fill="#02477D"/>
</g>
<defs>
<filter id="filter0_dd" x="0" y="0" width="55" height="55.9707" filterUnits="userSpaceOnUse" color-interpolation-filters="sRGB">
<feFlood flood-opacity="0" result="BackgroundImageFix"/>
<feColorMatrix in="SourceAlpha" type="matrix" values="0 0 0 0 0 0 0 0 0 0 0 0 0 0 0 0 0 0 127 0"/>
<feOffset dy="4"/>
<feGaussianBlur stdDeviation="2"/>
<feColorMatrix type="matrix" values="0 0 0 0 0 0 0 0 0 0 0 0 0 0 0 0 0 0 0.25 0"/>
<feBlend mode="normal" in2="BackgroundImageFix" result="effect1_dropShadow"/>
<feColorMatrix in="SourceAlpha" type="matrix" values="0 0 0 0 0 0 0 0 0 0 0 0 0 0 0 0 0 0 127 0"/>
<feOffset/>
<feGaussianBlur stdDeviation="3.5"/>
<feColorMatrix type="matrix" values="0 0 0 0 1 0 0 0 0 1 0 0 0 0 1 0 0 0 1 0"/>
<feBlend mode="normal" in2="effect1_dropShadow" result="effect2_dropShadow"/>
<feBlend mode="normal" in="SourceGraphic" in2="effect2_dropShadow" result="shape"/>
</filter>
</defs>
</svg>
