<svg width="54" height="54" viewBox="0 0 54 54" fill="none" xmlns="http://www.w3.org/2000/svg">
<g filter="url(#filter0_d)">
<path d="M27 7C15.9542 7 7 15.9476 7 26.9854C7 38.0231 15.9542 46.9707 27 46.9707C38.0458 46.9707 47 38.0231 47 26.9854C47 15.9476 38.0458 7 27 7ZM35.1354 23.3713C35.1437 23.542 35.1458 23.7128 35.1458 23.8793C35.1458 29.0838 31.1854 35.0815 23.9396 35.0815C21.7146 35.0815 19.6437 34.432 17.9021 33.312C18.2083 33.3494 18.5229 33.364 18.8417 33.364C20.6875 33.364 22.3854 32.7374 23.7333 31.6798C22.0104 31.6465 20.5562 30.5099 20.0542 28.9485C20.2937 28.9922 20.5396 29.0172 20.7937 29.0172C21.1521 29.0172 21.5021 28.9693 21.8312 28.8798C20.0292 28.5176 18.6708 26.9271 18.6708 25.0201V24.9722C19.2021 25.2658 19.8104 25.4448 20.4563 25.4656C19.3979 24.7578 18.7042 23.5545 18.7042 22.1868C18.7042 21.4665 18.8979 20.7878 19.2375 20.207C21.1812 22.5886 24.0812 24.1541 27.3562 24.3227C27.2875 24.0333 27.2542 23.7336 27.2542 23.4234C27.2542 21.2521 29.0167 19.4867 31.1937 19.4867C32.325 19.4867 33.35 19.9655 34.0687 20.7316C34.9667 20.5526 35.8083 20.2278 36.5688 19.7761C36.275 20.6941 35.6521 21.4665 34.8375 21.9557C35.6354 21.8579 36.3937 21.6476 37.1 21.3332C36.5729 22.1222 35.9042 22.8176 35.1354 23.3713Z" fill="#02477D"/>
</g>
<defs>
<filter id="filter0_d" x="0" y="0" width="54" height="53.9707" filterUnits="userSpaceOnUse" color-interpolation-filters="sRGB">
<feFlood flood-opacity="0" result="BackgroundImageFix"/>
<feColorMatrix in="SourceAlpha" type="matrix" values="0 0 0 0 0 0 0 0 0 0 0 0 0 0 0 0 0 0 127 0"/>
<feOffset/>
<feGaussianBlur stdDeviation="3.5"/>
<feColorMatrix type="matrix" values="0 0 0 0 1 0 0 0 0 1 0 0 0 0 1 0 0 0 1 0"/>
<feBlend mode="normal" in2="BackgroundImageFix" result="effect1_dropShadow"/>
<feBlend mode="normal" in="SourceGraphic" in2="effect1_dropShadow" result="shape"/>
</filter>
</defs>
</svg>
