<svg width="54" height="56" viewBox="0 0 54 56" fill="none" xmlns="http://www.w3.org/2000/svg">
<g filter="url(#filter0_dd)">
<path d="M27 7C15.9542 7 7 16.1712 7 27.4849C7 38.7985 15.9542 47.9697 27 47.9697C38.0458 47.9697 47 38.7985 47 27.4849C47 16.1712 38.0458 7 27 7ZM31.7375 21.1559H28.7313C28.375 21.1559 27.9792 21.636 27.9792 22.274V24.4975H31.7396L31.1708 27.6684H27.9792V37.1874H24.4312V27.6684H21.2125V24.4975H24.4312V22.6325C24.4312 19.9567 26.2438 17.7823 28.7313 17.7823H31.7375V21.1559Z" fill="#02477D"/>
</g>
<defs>
<filter id="filter0_dd" x="0" y="0" width="54" height="55.9697" filterUnits="userSpaceOnUse" color-interpolation-filters="sRGB">
<feFlood flood-opacity="0" result="BackgroundImageFix"/>
<feColorMatrix in="SourceAlpha" type="matrix" values="0 0 0 0 0 0 0 0 0 0 0 0 0 0 0 0 0 0 127 0"/>
<feOffset dy="4"/>
<feGaussianBlur stdDeviation="2"/>
<feColorMatrix type="matrix" values="0 0 0 0 0 0 0 0 0 0 0 0 0 0 0 0 0 0 0.25 0"/>
<feBlend mode="normal" in2="BackgroundImageFix" result="effect1_dropShadow"/>
<feColorMatrix in="SourceAlpha" type="matrix" values="0 0 0 0 0 0 0 0 0 0 0 0 0 0 0 0 0 0 127 0"/>
<feOffset/>
<feGaussianBlur stdDeviation="3.5"/>
<feColorMatrix type="matrix" values="0 0 0 0 1 0 0 0 0 1 0 0 0 0 1 0 0 0 1 0"/>
<feBlend mode="normal" in2="effect1_dropShadow" result="effect2_dropShadow"/>
<feBlend mode="normal" in="SourceGraphic" in2="effect2_dropShadow" result="shape"/>
</filter>
</defs>
</svg>
